<svg width="488" height="540" viewBox="0 0 488 540" fill="none" xmlns="http://www.w3.org/2000/svg">
<path d="M488 458C488 503.287 451.287 540 406 540C360.713 540 324 503.287 324 458C324 412.713 360.713 376 406 376C451.287 376 488 412.713 488 458Z" fill="white"/>
<path d="M455 93.9994H488V458L455 457.999V93.9994Z" fill="white"/>
<path d="M488 0.0231934L256.551 231.472L309.775 284.696L488 106.471V0.0231934Z" fill="white"/>
<path d="M131 106.226L298.031 273.257L351.257 220.031L131.226 0L131 0.225586V106.226Z" fill="white"/>
<path d="M131 93.9994H164V457.999H131V93.9994Z" fill="white"/>
<path d="M164 457.603C164 502.89 127.287 539.603 82.0001 539.603C36.7127 539.603 6.10352e-05 502.89 6.10352e-05 457.603C6.10352e-05 412.315 36.7127 375.603 82.0001 375.603C127.287 375.603 164 412.315 164 457.603Z" fill="white"/>
</svg>
